<?xml version="1.0" encoding="UTF-8"?>
<svg id="Layer_1" data-name="Layer 1" xmlns="http://www.w3.org/2000/svg" xmlns:xlink="http://www.w3.org/1999/xlink" viewBox="0 0 200 69.29">
  <defs>
    <style>
      .cls-1 {
        fill: #2caa4c;
      }

      .cls-2 {
        fill: #3cae4a;
      }

      .cls-3 {
        fill: #1da64e;
      }

      .cls-4 {
        fill: #3aad4a;
      }

      .cls-5 {
        fill: #67b845;
      }

      .cls-6 {
        fill: #46b049;
      }

      .cls-7 {
        fill: #81bf42;
      }

      .cls-8 {
        fill: #22a74d;
      }

      .cls-9 {
        fill: #52b347;
      }

      .cls-10 {
        fill: #24a84d;
      }

      .cls-11 {
        fill: #48b148;
      }

      .cls-12 {
        fill: #72bb43;
      }

      .cls-13 {
        fill: #1ba64e;
      }

      .cls-14 {
        fill: #1aa54e;
      }

      .cls-15 {
        fill: #05a050;
      }

      .cls-16 {
        fill: #50b347;
      }

      .cls-17 {
        fill: #14a44f;
      }

      .cls-18 {
        fill: #10a34f;
      }

      .cls-19 {
        fill: #21a74d;
      }

      .cls-20 {
        fill: #68b945;
      }

      .cls-21 {
        fill: #1ca64e;
      }

      .cls-22 {
        fill: #38ad4a;
      }

      .cls-23 {
        fill: #37ac4a;
      }

      .cls-24 {
        fill: #5eb646;
      }

      .cls-25 {
        fill: #85c041;
      }

      .cls-26 {
        fill: #3bad4a;
      }

      .cls-27 {
        fill: #07a150;
      }

      .cls-28 {
        fill: #43b049;
      }

      .cls-29 {
        fill: #1fa74d;
      }

      .cls-30 {
        fill: #77bc43;
      }

      .cls-31 {
        fill: #6ab944;
      }

      .cls-32 {
        fill: #33ac4b;
      }

      .cls-33 {
        fill: #60b746;
      }

      .cls-34 {
        fill: #06a050;
      }

      .cls-35 {
        fill: #16a44e;
      }

      .cls-36 {
        fill: #23a84d;
      }

      .cls-37 {
        fill: #6bb944;
      }

      .cls-38 {
        fill: #0ca250;
      }

      .cls-39 {
        fill: #31ab4b;
      }

      .cls-40 {
        fill: #08a150;
      }

      .cls-41 {
        fill: #4ab148;
      }

      .cls-42 {
        fill: #2fab4b;
      }

      .cls-43 {
        fill: #34ac4b;
      }

      .cls-44 {
        fill: #56b447;
      }

      .cls-45 {
        fill: #3dae4a;
      }

      .cls-46 {
        fill: #71bb44;
      }

      .cls-47 {
        fill: #42af49;
      }

      .cls-48 {
        fill: #12a34f;
      }

      .cls-49 {
        fill: #62b745;
      }

      .cls-50 {
        fill: #7ebe42;
      }

      .cls-51 {
        fill: #3eae4a;
      }

      .cls-52 {
        fill: #0ba250;
      }

      .cls-53 {
        fill: #7bbd42;
      }

      .cls-54 {
        fill: #58b547;
      }

      .cls-55 {
        fill: #51b347;
      }

      .cls-56 {
        fill: #40af49;
      }

      .cls-57 {
        fill: #80be42;
      }

      .cls-58 {
        fill: #79bd42;
      }

      .cls-59 {
        fill: #2eaa4b;
      }

      .cls-60 {
        fill: #4fb248;
      }

      .cls-61 {
        fill: #83bf41;
      }

      .cls-62 {
        fill: #59b546;
      }

      .cls-63 {
        fill: #6cba44;
      }

      .cls-64 {
        fill: #16a54e;
      }

      .cls-65 {
        fill: #5bb546;
      }

      .cls-66 {
        fill: #19a54e;
      }

      .cls-67 {
        fill: #13a44f;
      }

      .cls-68 {
        fill: #73bb43;
      }

      .cls-69 {
        fill: #1ea64d;
      }

      .cls-70 {
        fill: #7dbe42;
      }

      .cls-71 {
        fill: #3faf49;
      }

      .cls-72 {
        clip-path: url(#clippath);
      }

      .cls-73 {
        fill: #57b447;
      }

      .cls-74 {
        fill: #2daa4c;
      }

      .cls-75 {
        fill: #5fb646;
      }

      .cls-76 {
        fill: #03a051;
      }

      .cls-77 {
        fill: #7cbe42;
      }

      .cls-78 {
        fill: #41af49;
      }

      .cls-79 {
        fill: none;
      }

      .cls-80 {
        fill: #30ab4b;
      }

      .cls-81 {
        fill: #18a54e;
      }

      .cls-82 {
        fill: #35ac4b;
      }

      .cls-83 {
        fill: #75bc43;
      }

      .cls-84 {
        fill: #53b347;
      }

      .cls-85 {
        fill: #0fa34f;
      }

      .cls-86 {
        fill: #4bb248;
      }

      .cls-87 {
        fill: #2baa4c;
      }

      .cls-88 {
        fill: #4db248;
      }

      .cls-89 {
        fill: #5cb646;
      }

      .cls-90 {
        fill: #0ea24f;
      }

      .cls-91 {
        fill: #64b845;
      }

      .cls-92 {
        fill: #26a84c;
      }

      .cls-93 {
        fill: #6dba44;
      }

      .cls-94 {
        fill: #09a150;
      }

      .cls-95 {
        fill: #0da24f;
      }

      .cls-96 {
        fill: #86c041;
      }

      .cls-97 {
        fill: #4cb248;
      }

      .cls-98 {
        fill: #20a74d;
      }

      .cls-99 {
        fill: #6eba44;
      }

      .cls-100 {
        fill: #27a94c;
      }

      .cls-101 {
        fill: #0aa150;
      }

      .cls-102 {
        fill: #47b049;
      }

      .cls-103 {
        fill: #32ab4b;
      }

      .cls-104 {
        fill: #82bf41;
      }

      .cls-105 {
        fill: #76bc43;
      }

      .cls-106 {
        fill: #11a34f;
      }

      .cls-107 {
        fill: #54b447;
      }

      .cls-108 {
        fill: #2aa94c;
      }

      .cls-109 {
        fill: #17a54e;
      }

      .cls-110 {
        fill: #25a84d;
      }

      .cls-111 {
        fill: #61b745;
      }

      .cls-112 {
        fill: #66b845;
      }

      .cls-113 {
        fill: #29a94c;
      }

      .cls-114 {
        fill: #65b845;
      }

      .cls-115 {
        fill: #15a44f;
      }

      .cls-116 {
        fill: #78bd43;
      }

      .cls-117 {
        fill: #49b148;
      }

      .cls-118 {
        fill: #45b049;
      }

      .cls-119 {
        fill: #5ab546;
      }

      .cls-120 {
        fill: #28a94c;
      }

      .cls-121 {
        fill: #04a051;
      }

      .cls-122 {
        fill: #70ba44;
      }

      .cls-123 {
        fill: #39ad4a;
      }
    </style>
    <clipPath id="clippath">
      <path class="cls-79" d="m55.93,17.81c-.02-.25-.08-.49-.15-.72,0-.03-.01-.05-.02-.08-.07-.22-.17-.43-.28-.64-.02-.03-.03-.06-.05-.09-.12-.2-.25-.38-.4-.55-.02-.03-.05-.05-.07-.08-.15-.17-.32-.32-.5-.45-.03-.02-.06-.04-.09-.06-.18-.13-.38-.25-.58-.35-.03-.01-.06-.03-.09-.04-.21-.09-.43-.17-.66-.22-.03,0-.06-.01-.09-.02-.24-.05-.48-.08-.74-.08-.14,0-.27,0-.41.02h0c-.37.04-.72.13-1.06.28-.67.29-1.24.77-1.65,1.37-.21.3-.37.63-.48.99-.14.45-.19.88-.17,1.29.02.41.11.8.26,1.17-.98.88-2.17,1.96-3.44,3.1-.81.73-1.64,1.48-2.48,2.24-.02.02-.03.03-.05.05-.06.06-.12.11-.19.17-1.26,1.14-2.51,2.27-3.64,3.3-.66.6-1.29,1.17-1.84,1.68h0c-.55-.32-1.19-.52-1.88-.52-.58,0-1.12.13-1.6.37-.48.23-.91.57-1.26.98h0c-.53-.24-1.13-.5-1.79-.78-1.47-.63-3.22-1.34-5.07-2.1-.76-.31-1.53-.63-2.3-.95-1.53-.63-3.06-1.28-4.5-1.91-.59-.26-1.16-.51-1.71-.77,0-.09.03-.17.03-.25,0-.24-.03-.47-.07-.7,0-.03,0-.06-.02-.09-.05-.21-.11-.42-.19-.62-.01-.04-.03-.07-.05-.11-.09-.19-.19-.38-.3-.56-.02-.03-.04-.05-.06-.08-.13-.18-.26-.35-.42-.51,0,0,0,0,0,0-.15-.15-.32-.29-.5-.42-.02-.02-.05-.04-.07-.05-.18-.12-.36-.22-.56-.3-.04-.02-.07-.03-.11-.05-.2-.08-.4-.14-.61-.19-.03,0-.07-.01-.1-.02-.22-.04-.45-.07-.68-.07-.1,0-.2,0-.3.02-.05,0-.1,0-.14,0-.15.02-.3.04-.45.08,0,0,0,0,0,0-.17.04-.34.09-.5.15s-.32.14-.47.22c-.9.5-1.58,1.38-1.81,2.4-.21.92-.08,1.81.29,2.55.06.12.13.24.2.36.67,1.04,1.84,1.73,3.17,1.73.51,0,1-.1,1.45-.29s.85-.46,1.19-.79c.56.26,1.18.54,1.84.84,1.54.71,3.29,1.51,5.06,2.32h0c.1.05.2.09.3.14.61.28,1.29.56,1.99.84,1.52.6,3.16,1.18,4.52,1.7.68.26,1.29.5,1.78.73.03.01.05.02.08.04,0,.26.05.52.1.77.02.08.05.16.08.23.05.16.1.32.17.47.04.09.1.17.14.25.07.13.15.26.23.38.06.08.13.16.2.24.09.11.19.21.29.31.08.07.16.14.25.2.11.08.22.17.34.24.09.06.19.11.29.15.12.06.25.12.38.16.1.04.21.07.32.1.14.04.28.06.42.08.11.02.23.03.34.03.22.01.44.02.67-.01.22-.03.44-.08.65-.16.21-.08.41-.17.6-.29.38-.23.73-.53,1.01-.88.73-.87.99-1.65,1-2.36,0-.14,0-.28-.02-.42-.03-.27-.1-.54-.18-.79.5-.46,1.08-.98,1.69-1.53,1.16-1.05,2.47-2.24,3.86-3.5,2.02-1.82,4.18-3.77,6.2-5.6h0c.17.09.34.16.52.22.05.02.09.03.14.05.17.05.33.09.51.12.02,0,.04,0,.06.01.19.03.39.03.6.03.04,0,.09,0,.13,0,.21-.01.42-.04.63-.1h0c.19-.05.37-.11.54-.18s.34-.16.5-.26c.64-.39,1.17-.97,1.48-1.64.08-.17.15-.35.2-.53.05-.18.09-.37.12-.56.03-.27.03-.54.01-.8,0-.02,0-.04,0-.05Z"/>
    </clipPath>
  </defs>
  <g>
    <g>
      <path d="m9.36,59.42h.86v.94h-.86v-.94Z"/>
      <path d="m10.4,60.55h-1.23v-1.32h1.23v1.32Zm-.86-.37h.48v-.57h-.48v.57Z"/>
    </g>
    <g>
      <path d="m15.57,61.2l.74-.31c.26.67.8,1.04,1.48,1.04.6,0,.99-.29.99-.73,0-.39-.24-.61-.68-.75l-1.04-.32c-.83-.25-1.28-.79-1.28-1.49,0-.91.74-1.54,1.79-1.54.99,0,1.76.55,2.04,1.33l-.73.31c-.22-.57-.7-.89-1.31-.89-.55,0-.92.3-.92.75,0,.35.22.63.69.77l.97.3c.88.27,1.33.75,1.33,1.48,0,.91-.77,1.55-1.89,1.55-1.06,0-1.89-.62-2.19-1.49Z"/>
      <path d="m17.75,62.88c-1.11,0-2.04-.64-2.36-1.62l-.06-.17,1.08-.44.07.18c.23.59.69.92,1.3.92.49,0,.8-.21.8-.55,0-.21-.07-.42-.55-.57l-1.04-.32c-.9-.27-1.41-.88-1.41-1.67,0-1.02.81-1.73,1.98-1.73,1.03,0,1.9.57,2.21,1.46l.06.17-1.07.46-.07-.18c-.19-.5-.6-.77-1.13-.77-.45,0-.73.22-.73.56s.3.52.56.59l.97.3c.97.29,1.46.85,1.46,1.65,0,1.02-.85,1.74-2.08,1.74Zm-1.95-1.57c.32.73,1.06,1.2,1.95,1.2,1,0,1.7-.56,1.7-1.36,0-.64-.38-1.05-1.2-1.3l-.97-.3c-.52-.15-.82-.5-.82-.95,0-.55.46-.94,1.11-.94s1.13.3,1.4.84l.39-.17c-.3-.64-.99-1.04-1.79-1.04-.94,0-1.6.56-1.6,1.35,0,.62.41,1.09,1.15,1.31l1.04.32c.54.17.81.48.81.93,0,.55-.47.92-1.18.92s-1.27-.36-1.58-.98l-.41.17Z"/>
    </g>
    <g>
      <path d="m26.2,57.19h1.08l1.95,5.42h-.94l-.42-1.21h-2.25l-.43,1.21h-.94l1.95-5.42Zm1.4,3.44l-.86-2.49-.87,2.49h1.73Z"/>
      <path d="m29.5,62.79h-1.34l-.42-1.21h-1.99l-.43,1.21h-1.34l2.08-5.79h1.35l2.08,5.79Zm-1.07-.37h.54l-1.81-5.04h-.82l-1.81,5.04h.54l.43-1.21h2.52l.42,1.21Zm-.56-1.6h-2.26l1.13-3.24,1.12,3.24Zm-1.73-.37h1.2l-.6-1.73-.6,1.73Z"/>
    </g>
    <g>
      <path d="m34.05,57.19h3.6v.76h-2.73v1.63h2.43v.76h-2.43v2.26h-.88v-5.42Z"/>
      <path d="m35.11,62.79h-1.25v-5.79h3.98v1.14h-2.73v1.25h2.43v1.14h-2.43v2.26Zm-.88-.37h.5v-2.26h2.43v-.39h-2.43v-2h2.73v-.39h-3.23v5.04Z"/>
    </g>
    <g>
      <path d="m42.55,57.19h3.65v.76h-2.77v1.56h2.62v.76h-2.62v1.57h2.77v.76h-3.65v-5.42Z"/>
      <path d="m46.38,62.79h-4.02v-5.79h4.02v1.14h-2.77v1.18h2.62v1.14h-2.62v1.2h2.77v1.14Zm-3.65-.37h3.27v-.39h-2.77v-1.94h2.62v-.39h-2.62v-1.93h2.77v-.39h-3.27v5.04Z"/>
    </g>
    <g>
      <path d="m51.17,57.19h.88v4.65h2.39v.76h-3.27v-5.42Z"/>
      <path d="m54.63,62.79h-3.64v-5.79h1.25v4.65h2.39v1.14Zm-3.27-.37h2.9v-.39h-2.39v-4.65h-.5v5.04Z"/>
    </g>
    <g>
      <path d="m60.08,60.16l-1.9-2.97h.99l1.34,2.13,1.34-2.13h.99l-1.89,2.97v2.44h-.87v-2.44Z"/>
      <path d="m61.13,62.79h-1.24v-2.57l-2.05-3.22h1.43l1.23,1.96,1.23-1.96h1.43l-2.04,3.22v2.57Zm-.87-.37h.49v-2.31l1.73-2.73h-.54l-1.44,2.29-1.44-2.29h-.54l1.74,2.73v2.31Z"/>
    </g>
    <g>
      <path d="m74.57,57.19h1.08l1.95,5.42h-.94l-.42-1.21h-2.25l-.43,1.21h-.94l1.95-5.42Zm1.4,3.44l-.86-2.49-.87,2.49h1.73Z"/>
      <path d="m77.87,62.79h-1.34l-.42-1.21h-1.99l-.43,1.21h-1.33l2.08-5.79h1.35l2.08,5.79Zm-1.07-.37h.54l-1.81-5.04h-.82l-1.81,5.04h.54l.43-1.21h2.52l.42,1.21Zm-.56-1.6h-2.26l1.13-3.24,1.12,3.24Zm-1.73-.37h1.21l-.6-1.73-.6,1.73Z"/>
    </g>
    <g>
      <path d="m82.41,57.19h.71l2.77,3.74v-3.74h.87v5.42h-.71l-2.76-3.79v3.79h-.88v-5.42Z"/>
      <path d="m86.95,62.79h-.99l-2.48-3.4v3.4h-1.25v-5.79h.99l2.49,3.36v-3.36h1.24v5.79Zm-.8-.37h.42v-5.04h-.5v4.12l-3.05-4.12h-.42v5.04h.5v-4.17l3.05,4.17Z"/>
    </g>
    <g>
      <path d="m92.07,57.19h1.81c1.72,0,2.83,1.09,2.83,2.7s-1.12,2.71-2.83,2.71h-1.81v-5.42Zm1.83,4.65c1.17,0,1.93-.76,1.93-1.95s-.76-1.94-1.93-1.94h-.95v3.89h.95Z"/>
      <path d="m93.88,62.79h-2v-5.79h2c1.81,0,3.02,1.16,3.02,2.89s-1.21,2.9-3.02,2.9Zm-1.63-.37h1.63c1.58,0,2.64-1.01,2.64-2.52s-1.04-2.52-2.64-2.52h-1.63v5.04Zm1.64-.39h-1.14v-4.26h1.14c1.29,0,2.12.84,2.12,2.13s-.83,2.14-2.12,2.14Zm-.76-.37h.76c1.08,0,1.74-.67,1.74-1.76s-.67-1.75-1.74-1.75h-.76v3.51Z"/>
    </g>
    <g>
      <path d="m107.2,57.19h2.01c1.12,0,1.89.63,1.89,1.69,0,.76-.41,1.3-1.06,1.54l1.28,2.18h-1l-1.17-2.04h-1.08v2.04h-.88v-5.42Zm2.03,2.62c.6,0,1-.36,1-.93s-.39-.92-1-.92h-1.15v1.85h1.15Z"/>
      <path d="m111.65,62.79h-1.43l-1.17-2.03h-.78v2.03h-1.25v-5.79h2.2c1.26,0,2.08.74,2.08,1.88,0,.74-.35,1.32-.97,1.63l1.34,2.28Zm-1.21-.37h.56l-1.23-2.09.21-.08c.59-.22.93-.72.93-1.37,0-.93-.65-1.51-1.7-1.51h-1.83v5.04h.5v-2.03h1.37l1.17,2.03Zm-1.21-2.42h-1.34v-2.23h1.34c.71,0,1.18.45,1.18,1.11s-.48,1.12-1.18,1.12Zm-.96-.37h.96c.5,0,.81-.28.81-.74s-.3-.74-.81-.74h-.96v1.48Z"/>
    </g>
    <g>
      <path d="m116.22,57.19h3.65v.76h-2.77v1.56h2.62v.76h-2.62v1.57h2.77v.76h-3.65v-5.42Z"/>
      <path d="m120.05,62.79h-4.02v-5.79h4.02v1.14h-2.77v1.18h2.62v1.14h-2.62v1.2h2.77v1.14Zm-3.65-.37h3.27v-.39h-2.77v-1.94h2.62v-.39h-2.62v-1.93h2.77v-.39h-3.27v5.04Z"/>
    </g>
    <g>
      <path d="m124.68,59.9c0-1.61,1.16-2.79,2.74-2.79,1.16,0,2.01.66,2.3,1.4l-.78.37c-.23-.6-.77-.99-1.52-.99-1.1,0-1.87.81-1.87,2.01s.78,2.01,1.88,2.01c.92,0,1.69-.6,1.69-1.5v-.02h-1.7v-.73h2.57v.51c0,1.6-1.22,2.52-2.56,2.52-1.58,0-2.76-1.19-2.76-2.8Z"/>
      <path d="m127.44,62.88c-1.68,0-2.94-1.28-2.94-2.99s1.23-2.98,2.93-2.98c1.3,0,2.18.76,2.47,1.52l.06.16-1.12.53-.07-.19c-.21-.55-.7-.87-1.34-.87-1,0-1.68.73-1.68,1.83s.68,1.83,1.69,1.83c.8,0,1.41-.47,1.49-1.15h-1.69v-1.1h2.95v.7c0,1.78-1.38,2.71-2.74,2.71Zm-.01-5.59c-1.48,0-2.55,1.1-2.55,2.6s1.08,2.61,2.57,2.61c1.18,0,2.37-.8,2.37-2.34v-.32h-2.2v.35h1.7v.19c0,.98-.81,1.71-1.87,1.71-1.22,0-2.07-.91-2.07-2.2s.84-2.2,2.05-2.2c.72,0,1.31.34,1.61.92l.44-.21c-.3-.57-1.03-1.12-2.05-1.12Z"/>
    </g>
    <g>
      <path d="m135,60.73v-3.54h.88v3.5c0,.71.51,1.21,1.24,1.21s1.25-.5,1.25-1.21v-3.5h.87v3.54c0,1.13-.87,1.96-2.12,1.96s-2.12-.83-2.12-1.96Z"/>
      <path d="m137.12,62.88c-1.34,0-2.31-.9-2.31-2.15v-3.73h1.25v3.69c0,.6.43,1.03,1.05,1.03s1.06-.41,1.06-1.03v-3.69h1.24v3.73c0,1.25-.97,2.15-2.31,2.15Zm-1.93-5.5v3.35c0,1.05.79,1.78,1.93,1.78s1.93-.73,1.93-1.78v-3.35h-.5v3.32c0,.81-.6,1.4-1.44,1.4s-1.43-.59-1.43-1.4v-3.32h-.5Z"/>
    </g>
    <g>
      <path d="m144.5,57.19h.88v4.65h2.39v.76h-3.27v-5.42Z"/>
      <path d="m147.95,62.79h-3.64v-5.79h1.25v4.65h2.39v1.14Zm-3.27-.37h2.9v-.39h-2.39v-4.65h-.5v5.04Z"/>
    </g>
    <g>
      <path d="m154.12,57.19h1.08l1.95,5.42h-.94l-.42-1.21h-2.25l-.43,1.21h-.94l1.95-5.42Zm1.4,3.44l-.86-2.49-.87,2.49h1.73Z"/>
      <path d="m157.42,62.79h-1.34l-.42-1.21h-1.99l-.43,1.21h-1.33l2.08-5.79h1.35l2.08,5.79Zm-1.07-.37h.54l-1.81-5.04h-.82l-1.81,5.04h.54l.43-1.21h2.52l.42,1.21Zm-.56-1.6h-2.26l1.13-3.24,1.12,3.24Zm-1.73-.37h1.2l-.6-1.73-.6,1.73Z"/>
    </g>
    <g>
      <path d="m162.58,57.95h-1.47v-.76h3.79v.76h-1.45v4.65h-.87v-4.65Z"/>
      <path d="m163.63,62.79h-1.24v-4.65h-1.47v-1.14h4.16v1.14h-1.45v4.65Zm-.87-.37h.49v-4.65h1.45v-.39h-3.42v.39h1.47v4.65Z"/>
    </g>
    <g>
      <path d="m169.71,57.19h3.65v.76h-2.77v1.56h2.62v.76h-2.62v1.57h2.77v.76h-3.65v-5.42Z"/>
      <path d="m173.55,62.79h-4.02v-5.79h4.02v1.14h-2.77v1.18h2.62v1.14h-2.62v1.2h2.77v1.14Zm-3.65-.37h3.27v-.39h-2.77v-1.94h2.62v-.39h-2.62v-1.93h2.77v-.39h-3.27v5.04Z"/>
    </g>
    <g>
      <path d="m178.34,57.19h1.81c1.72,0,2.83,1.09,2.83,2.7s-1.12,2.71-2.83,2.71h-1.81v-5.42Zm1.83,4.65c1.17,0,1.93-.76,1.93-1.95s-.76-1.94-1.93-1.94h-.95v3.89h.95Z"/>
      <path d="m180.15,62.79h-2v-5.79h2c1.81,0,3.02,1.16,3.02,2.89s-1.21,2.9-3.02,2.9Zm-1.63-.37h1.63c1.58,0,2.64-1.01,2.64-2.52s-1.04-2.52-2.64-2.52h-1.63v5.04Zm1.64-.39h-1.14v-4.26h1.14c1.29,0,2.12.84,2.12,2.13s-.83,2.14-2.12,2.14Zm-.76-.37h.76c1.08,0,1.74-.67,1.74-1.76s-.67-1.75-1.74-1.75h-.76v3.51Z"/>
    </g>
    <g>
      <path d="m188.29,59.42h.86v.94h-.86v-.94Z"/>
      <path d="m189.34,60.55h-1.23v-1.32h1.23v1.32Zm-.86-.37h.48v-.57h-.48v.57Z"/>
    </g>
  </g>
  <path d="m16.49,29.05c-1.03.89-2.35,1.43-3.86,1.43-3.08,0-5.16-2.23-5.16-5.41,0-1.03.2-2,.56-2.87.04-.12.09-.23.14-.34,0-.02.02-.04.03-.06.22-.49.52-.94.87-1.34,1.11-1.33,2.73-2.15,4.64-2.15,2.88,0,4.86,2.07,5.06,4.93,1.47.65,3.05,1.33,4.64,1.99l2.61-18.83h-4.93l-1.37,9.94c-1.41-1.56-3.56-2.49-6.19-2.49-6.08,0-11.13,4.67-11.13,11.46,0,5.64,3.86,9.61,9.57,9.61,2.15,0,4.23-.67,5.75-1.97l-.22,1.52h4.64l.37-2.69c-.06-.03-.13-.05-.19-.08-2.05-.94-4.09-1.88-5.82-2.67Z"/>
  <path d="m31.73,28.7c1.02-.89,2.34-1.43,3.85-1.43.59,0,1.15.08,1.66.24,1.17-1.06,2.48-2.25,3.82-3.46-1.39-.78-3.02-1.23-4.81-1.23-2.08,0-3.89.59-5.38,1.63l1.26-9.09h-4.9l-1.52,10.83c.37.15.75.31,1.11.46,1.79.73,3.49,1.43,4.9,2.04Z"/>
  <path d="m40.77,32.72c0,.37-.03.72-.08,1.07,0,.04-.01.08-.02.12-.01.08-.02.16-.04.23-.02.14-.06.28-.09.42-.7,2.81-2.99,4.87-6,4.87s-4.84-1.98-5.06-4.91c-.68-.27-1.46-.56-2.28-.86-.77-.29-1.6-.59-2.41-.91l-1.5,10.69h4.64l.33-2.37c1.41,1.78,3.89,2.82,6.75,2.82,6.08,0,10.83-5.04,10.83-11.2,0-1.41-.26-2.74-.73-3.94-1.52,1.37-3.04,2.75-4.35,3.94,0,.01,0,.02,0,.03Z"/>
  <path d="m67.54,22.82c-2.41,0-4.49.89-5.82,2.74l.3-2.3h-4.56l-2.82,20.18h4.86l1.63-11.83c.37-2.63,2.34-4.34,4.75-4.34s3.78,1.67,3.45,4.23l-1.67,11.94h4.86l1.74-12.5c.63-4.6-2.11-8.12-6.71-8.12Z"/>
  <polygon points="90.35 23.26 83.75 36.35 80.82 23.26 75.74 23.26 80.82 43.44 85.12 43.44 95.92 23.26 90.35 23.26"/>
  <path d="m105.22,22.82c-6.08,0-10.68,5.04-10.68,11.2,0,5.56,3.82,9.87,9.79,9.87,4.08,0,7.46-1.97,8.9-4.9l-3.86-2c-1,1.52-2.67,2.63-4.93,2.63-2.86,0-4.78-1.78-4.93-4.9h14.58c.22-.93.41-1.89.41-2.78,0-5.04-3.3-9.12-9.27-9.12Zm-5.3,8.2c.74-2.49,2.37-4.19,5.27-4.19,2.56,0,4.27,1.74,4.23,4.19h-9.5Z"/>
  <path d="m124.28,26.78c1.97,0,3.67,1.11,4.15,2.89l3.82-1.52c-.89-3.3-3.89-5.34-7.79-5.34-4.53,0-7.9,2.86-7.9,6.6,0,2.67,1.63,4.64,4.64,5.49l3.23.93c1.04.26,2.04.78,2.04,1.93,0,1.3-1.15,2.3-3.15,2.3-2.3,0-4.08-1.34-4.93-3.52l-3.75,1.52c.82,3.49,4.23,5.82,8.49,5.82,4.75,0,8.12-2.86,8.12-6.57,0-2.6-1.67-4.49-4.71-5.42l-3.12-.96c-1.15-.33-2.11-.85-2.11-2,0-1.3,1.22-2.15,2.97-2.15Z"/>
  <path d="m141.83,27.6h4.6l.59-4.34h-4.56l.63-4.6h-4.93l-.19,1.41c-.26,2-1.71,3.19-3.67,3.19h-.26l-.59,4.34h3.45l-1.22,8.79c-.63,4.53,1.74,7.27,6.42,7.27.63,0,1.6-.04,2.3-.22l.37-4.15c-.59.11-1,.11-1.45.11-2.3,0-3-.96-2.71-3.04l1.22-8.75Z"/>
  <polygon points="155.36 15.81 150.47 15.81 149.73 21 154.66 21 155.36 15.81"/>
  <polygon points="146.61 43.44 151.51 43.44 154.32 23.26 149.43 23.26 146.61 43.44"/>
  <path d="m167.45,22.82c-2.41,0-4.49.89-5.82,2.74l.3-2.3h-4.56l-2.82,20.18h4.86l1.63-11.83c.37-2.63,2.34-4.34,4.75-4.34s3.78,1.67,3.45,4.23l-1.67,11.94h4.86l1.74-12.5c.63-4.6-2.11-8.12-6.71-8.12Z"/>
  <path d="m192.97,23.26l-.3,2.3c-1.48-1.78-3.82-2.74-6.53-2.74-5.86,0-10.39,4.53-10.39,10.53,0,5.42,3.86,9.27,9.24,9.27,2.04,0,3.82-.56,5.23-1.71l-.26,1.78c-.37,2.67-2.67,4.45-5.53,4.45-2.63,0-4.34-1.15-4.71-3l-4.6,1.41c.74,3.56,4.34,6.05,8.94,6.05,5.71,0,10.13-3.64,10.83-8.75l2.71-19.58h-4.64Zm-8.13,14.82c-1.89-.24-3.72-2.05-3.97-3.94-.5-3.81,2.21-6.88,5.76-6.88,2.93,0,4.79,2.08,4.79,4.97,0,3.44-2.77,6.33-6.57,5.84Z"/>
  <path d="m53.51,23.55c-.44.11-.88.17-1.32.17s-.87-.06-1.3-.16c-.02,0-.04.02-.06.03-.37.34-.8.72-1.25,1.13-.22.35-.38.75-.44,1.18l-2.45,17.55h4.9l2.82-20.18h-.06c-.27.12-.55.22-.84.29Z"/>
  <g class="cls-72">
    <polygon class="cls-76" points="55.95 18.53 55.58 14.43 55.95 14.43 55.95 18.53"/>
    <polygon class="cls-121" points="55.95 22.69 55.2 14.43 55.58 14.43 55.95 18.53 55.95 22.69"/>
    <polygon class="cls-15" points="55.95 26.85 54.82 14.43 55.2 14.43 55.95 22.69 55.95 26.85"/>
    <polygon class="cls-15" points="55.95 31 54.44 14.43 54.82 14.43 55.95 26.85 55.95 31"/>
    <polygon class="cls-34" points="55.95 35.16 54.07 14.43 54.44 14.43 55.95 31 55.95 35.16"/>
    <polygon class="cls-27" points="55.95 36.2 55.67 36.22 53.69 14.43 54.07 14.43 55.95 35.16 55.95 36.2"/>
    <polygon class="cls-27" points="55.67 36.22 55.3 36.26 53.31 14.43 53.69 14.43 55.67 36.22"/>
    <polygon class="cls-40" points="55.3 36.26 54.92 36.29 52.93 14.43 53.31 14.43 55.3 36.26"/>
    <polygon class="cls-94" points="54.92 36.29 54.55 36.32 52.56 14.43 52.93 14.43 54.92 36.29"/>
    <polygon class="cls-94" points="54.55 36.32 54.17 36.36 52.18 14.43 52.56 14.43 54.55 36.32"/>
    <polygon class="cls-101" points="54.17 36.36 53.8 36.39 51.8 14.43 52.18 14.43 54.17 36.36"/>
    <polygon class="cls-52" points="53.8 36.39 53.42 36.43 51.42 14.43 51.8 14.43 53.8 36.39"/>
    <polygon class="cls-38" points="53.42 36.43 53.05 36.46 51.04 14.43 51.42 14.43 53.42 36.43"/>
    <polygon class="cls-38" points="53.05 36.46 52.67 36.5 50.67 14.43 51.04 14.43 53.05 36.46"/>
    <polygon class="cls-95" points="52.67 36.5 52.3 36.53 50.29 14.43 50.67 14.43 52.67 36.5"/>
    <polygon class="cls-90" points="52.3 36.53 51.92 36.56 49.91 14.43 50.29 14.43 52.3 36.53"/>
    <polygon class="cls-85" points="51.92 36.56 51.55 36.6 49.53 14.43 49.91 14.43 51.92 36.56"/>
    <polygon class="cls-18" points="51.55 36.6 51.17 36.63 49.15 14.43 49.53 14.43 51.55 36.6"/>
    <polygon class="cls-18" points="51.17 36.63 50.8 36.67 48.78 14.43 49.15 14.43 51.17 36.63"/>
    <polygon class="cls-106" points="50.8 36.67 50.42 36.7 48.4 14.43 48.78 14.43 50.8 36.67"/>
    <polygon class="cls-48" points="50.42 36.7 50.05 36.73 48.02 14.43 48.4 14.43 50.42 36.7"/>
    <polygon class="cls-67" points="50.05 36.73 49.67 36.77 47.64 14.43 48.02 14.43 50.05 36.73"/>
    <polygon class="cls-17" points="49.67 36.77 49.3 36.8 47.26 14.43 47.64 14.43 49.67 36.77"/>
    <polygon class="cls-115" points="49.3 36.8 48.92 36.84 46.89 14.43 47.26 14.43 49.3 36.8"/>
    <polygon class="cls-35" points="48.92 36.84 48.55 36.87 46.51 14.43 46.89 14.43 48.92 36.84"/>
    <polygon class="cls-64" points="48.55 36.87 48.17 36.9 46.13 14.43 46.51 14.43 48.55 36.87"/>
    <polygon class="cls-109" points="48.17 36.9 47.8 36.94 45.75 14.43 46.13 14.43 48.17 36.9"/>
    <polygon class="cls-81" points="47.8 36.94 47.42 36.97 45.38 14.43 45.75 14.43 47.8 36.94"/>
    <polygon class="cls-66" points="47.42 36.97 47.05 37.01 45 14.43 45.38 14.43 47.42 36.97"/>
    <polygon class="cls-14" points="47.05 37.01 46.68 37.04 44.62 14.43 45 14.43 47.05 37.01"/>
    <polygon class="cls-13" points="46.68 37.04 46.47 37.06 46.3 37.06 44.24 14.43 44.62 14.43 46.68 37.04"/>
    <polygon class="cls-21" points="45.92 37.06 43.86 14.43 44.24 14.43 46.3 37.06 45.92 37.06"/>
    <polygon class="cls-3" points="45.54 37.06 43.49 14.43 43.86 14.43 45.92 37.06 45.54 37.06"/>
    <polygon class="cls-69" points="45.17 37.06 43.11 14.43 43.49 14.43 45.54 37.06 45.17 37.06"/>
    <polygon class="cls-29" points="44.79 37.06 42.73 14.43 43.11 14.43 45.17 37.06 44.79 37.06"/>
    <polygon class="cls-98" points="44.41 37.06 42.35 14.43 42.73 14.43 44.79 37.06 44.41 37.06"/>
    <polygon class="cls-98" points="44.03 37.06 41.97 14.43 42.35 14.43 44.41 37.06 44.03 37.06"/>
    <polygon class="cls-19" points="43.65 37.06 41.6 14.43 41.97 14.43 44.03 37.06 43.65 37.06"/>
    <polygon class="cls-8" points="43.28 37.06 41.22 14.43 41.6 14.43 43.65 37.06 43.28 37.06"/>
    <polygon class="cls-36" points="42.9 37.06 40.84 14.44 40.96 14.43 41.22 14.43 43.28 37.06 42.9 37.06"/>
    <polygon class="cls-10" points="42.52 37.06 40.47 14.47 40.84 14.44 42.9 37.06 42.52 37.06"/>
    <polygon class="cls-110" points="42.14 37.06 40.09 14.51 40.47 14.47 42.52 37.06 42.14 37.06"/>
    <polygon class="cls-92" points="41.76 37.06 39.72 14.54 40.09 14.51 42.14 37.06 41.76 37.06"/>
    <polygon class="cls-100" points="41.39 37.06 39.34 14.57 39.72 14.54 41.76 37.06 41.39 37.06"/>
    <polygon class="cls-120" points="41.01 37.06 38.97 14.61 39.34 14.57 41.39 37.06 41.01 37.06"/>
    <polygon class="cls-113" points="40.63 37.06 38.59 14.64 38.97 14.61 41.01 37.06 40.63 37.06"/>
    <polygon class="cls-108" points="40.25 37.06 38.22 14.68 38.59 14.64 40.63 37.06 40.25 37.06"/>
    <polygon class="cls-87" points="39.87 37.06 37.84 14.71 38.22 14.68 40.25 37.06 39.87 37.06"/>
    <polygon class="cls-1" points="39.5 37.06 37.47 14.74 37.84 14.71 39.87 37.06 39.5 37.06"/>
    <polygon class="cls-74" points="39.12 37.06 37.09 14.78 37.47 14.74 39.5 37.06 39.12 37.06"/>
    <polygon class="cls-59" points="38.74 37.06 36.72 14.81 37.09 14.78 39.12 37.06 38.74 37.06"/>
    <polygon class="cls-42" points="38.36 37.06 36.34 14.85 36.72 14.81 38.74 37.06 38.36 37.06"/>
    <polygon class="cls-80" points="37.99 37.06 35.97 14.88 36.34 14.85 38.36 37.06 37.99 37.06"/>
    <polygon class="cls-39" points="37.61 37.06 35.59 14.91 35.97 14.88 37.99 37.06 37.61 37.06"/>
    <polygon class="cls-103" points="37.23 37.06 35.22 14.95 35.59 14.91 37.61 37.06 37.23 37.06"/>
    <polygon class="cls-32" points="36.85 37.06 34.84 14.98 35.22 14.95 37.23 37.06 36.85 37.06"/>
    <polygon class="cls-43" points="36.47 37.06 34.47 15.02 34.84 14.98 36.85 37.06 36.47 37.06"/>
    <polygon class="cls-82" points="36.1 37.06 34.1 15.05 34.47 15.02 36.47 37.06 36.1 37.06"/>
    <polygon class="cls-23" points="35.72 37.06 33.72 15.08 34.1 15.05 36.1 37.06 35.72 37.06"/>
    <polygon class="cls-22" points="35.34 37.06 33.35 15.12 33.72 15.08 35.72 37.06 35.34 37.06"/>
    <polygon class="cls-123" points="34.96 37.06 32.97 15.15 33.35 15.12 35.34 37.06 34.96 37.06"/>
    <polygon class="cls-4" points="34.58 37.06 32.6 15.19 32.97 15.15 34.96 37.06 34.58 37.06"/>
    <polygon class="cls-26" points="34.21 37.06 32.22 15.22 32.6 15.19 34.58 37.06 34.21 37.06"/>
    <polygon class="cls-2" points="33.83 37.06 31.85 15.26 32.22 15.22 34.21 37.06 33.83 37.06"/>
    <polygon class="cls-45" points="33.45 37.06 31.47 15.29 31.85 15.26 33.83 37.06 33.45 37.06"/>
    <polygon class="cls-51" points="33.07 37.06 31.1 15.32 31.47 15.29 33.45 37.06 33.07 37.06"/>
    <polygon class="cls-71" points="32.7 37.06 30.72 15.36 31.1 15.32 33.07 37.06 32.7 37.06"/>
    <polygon class="cls-56" points="32.32 37.06 30.35 15.39 30.72 15.36 32.7 37.06 32.32 37.06"/>
    <polygon class="cls-78" points="31.94 37.06 29.97 15.43 30.35 15.39 32.32 37.06 31.94 37.06"/>
    <polygon class="cls-47" points="31.56 37.06 29.6 15.46 29.97 15.43 31.94 37.06 31.56 37.06"/>
    <polygon class="cls-28" points="31.18 37.06 29.22 15.49 29.6 15.46 31.56 37.06 31.18 37.06"/>
    <polygon class="cls-118" points="30.81 37.06 28.85 15.53 29.22 15.49 31.18 37.06 30.81 37.06"/>
    <polygon class="cls-6" points="30.43 37.06 28.47 15.56 28.85 15.53 30.81 37.06 30.43 37.06"/>
    <polygon class="cls-102" points="30.05 37.06 28.1 15.6 28.47 15.56 30.43 37.06 30.05 37.06"/>
    <polygon class="cls-11" points="29.67 37.06 27.72 15.63 28.1 15.6 30.05 37.06 29.67 37.06"/>
    <polygon class="cls-117" points="29.29 37.06 27.35 15.66 27.72 15.63 29.67 37.06 29.29 37.06"/>
    <polygon class="cls-41" points="28.92 37.06 26.97 15.7 27.35 15.66 29.29 37.06 28.92 37.06"/>
    <polygon class="cls-86" points="28.54 37.06 26.6 15.73 26.97 15.7 28.92 37.06 28.54 37.06"/>
    <polygon class="cls-97" points="28.16 37.06 26.22 15.77 26.6 15.73 28.54 37.06 28.16 37.06"/>
    <polygon class="cls-88" points="27.78 37.06 25.85 15.8 26.22 15.77 28.16 37.06 27.78 37.06"/>
    <polygon class="cls-60" points="27.4 37.06 25.48 15.83 25.85 15.8 27.78 37.06 27.4 37.06"/>
    <polygon class="cls-16" points="27.03 37.06 25.1 15.87 25.48 15.83 27.4 37.06 27.03 37.06"/>
    <polygon class="cls-55" points="26.65 37.06 24.73 15.9 25.1 15.87 27.03 37.06 26.65 37.06"/>
    <polygon class="cls-9" points="26.27 37.06 24.35 15.94 24.73 15.9 26.65 37.06 26.27 37.06"/>
    <polygon class="cls-84" points="25.89 37.06 23.98 15.97 24.35 15.94 26.27 37.06 25.89 37.06"/>
    <polygon class="cls-107" points="25.52 37.06 23.6 16 23.98 15.97 25.89 37.06 25.52 37.06"/>
    <polygon class="cls-44" points="25.14 37.06 23.23 16.04 23.6 16 25.52 37.06 25.14 37.06"/>
    <polygon class="cls-73" points="24.76 37.06 22.85 16.07 23.23 16.04 25.14 37.06 24.76 37.06"/>
    <polygon class="cls-54" points="24.38 37.06 22.48 16.11 22.85 16.07 24.76 37.06 24.38 37.06"/>
    <polygon class="cls-62" points="24 37.06 22.1 16.14 22.48 16.11 24.38 37.06 24 37.06"/>
    <polygon class="cls-119" points="23.63 37.06 21.73 16.18 22.1 16.14 24 37.06 23.63 37.06"/>
    <polygon class="cls-65" points="23.25 37.06 21.35 16.21 21.73 16.18 23.63 37.06 23.25 37.06"/>
    <polygon class="cls-89" points="22.87 37.06 20.98 16.24 21.35 16.21 23.25 37.06 22.87 37.06"/>
    <polygon class="cls-24" points="22.49 37.06 20.6 16.28 20.98 16.24 22.87 37.06 22.49 37.06"/>
    <polygon class="cls-75" points="22.11 37.06 20.23 16.31 20.6 16.28 22.49 37.06 22.11 37.06"/>
    <polygon class="cls-33" points="21.74 37.06 19.85 16.35 20.23 16.31 22.11 37.06 21.74 37.06"/>
    <polygon class="cls-111" points="21.36 37.06 19.48 16.38 19.85 16.35 21.74 37.06 21.36 37.06"/>
    <polygon class="cls-49" points="20.98 37.06 19.1 16.41 19.48 16.38 21.36 37.06 20.98 37.06"/>
    <polygon class="cls-91" points="20.6 37.06 18.73 16.45 19.1 16.41 20.98 37.06 20.6 37.06"/>
    <polygon class="cls-114" points="20.22 37.06 18.35 16.48 18.73 16.45 20.6 37.06 20.22 37.06"/>
    <polygon class="cls-112" points="19.85 37.06 17.98 16.52 18.35 16.48 20.22 37.06 19.85 37.06"/>
    <polygon class="cls-5" points="19.47 37.06 17.6 16.55 17.98 16.52 19.85 37.06 19.47 37.06"/>
    <polygon class="cls-20" points="19.09 37.06 17.23 16.58 17.6 16.55 19.47 37.06 19.09 37.06"/>
    <polygon class="cls-31" points="18.71 37.06 16.86 16.62 17.23 16.58 19.09 37.06 18.71 37.06"/>
    <polygon class="cls-37" points="18.34 37.06 16.48 16.65 16.86 16.62 18.71 37.06 18.34 37.06"/>
    <polygon class="cls-63" points="17.96 37.06 16.11 16.69 16.48 16.65 18.34 37.06 17.96 37.06"/>
    <polygon class="cls-93" points="17.58 37.06 15.73 16.72 16.11 16.69 17.96 37.06 17.58 37.06"/>
    <polygon class="cls-99" points="17.2 37.06 15.36 16.75 15.73 16.72 17.58 37.06 17.2 37.06"/>
    <polygon class="cls-122" points="16.82 37.06 14.98 16.79 15.36 16.75 17.2 37.06 16.82 37.06"/>
    <polygon class="cls-46" points="16.45 37.06 14.61 16.82 14.98 16.79 16.82 37.06 16.45 37.06"/>
    <polygon class="cls-12" points="16.07 37.06 14.23 16.86 14.61 16.82 16.45 37.06 16.07 37.06"/>
    <polygon class="cls-68" points="15.69 37.06 13.86 16.89 14.23 16.86 16.07 37.06 15.69 37.06"/>
    <polygon class="cls-83" points="15.31 37.06 13.48 16.92 13.86 16.89 15.69 37.06 15.31 37.06"/>
    <polygon class="cls-105" points="14.93 37.06 13.11 16.96 13.48 16.92 15.31 37.06 14.93 37.06"/>
    <polygon class="cls-30" points="14.56 37.06 12.73 16.99 13.11 16.96 14.93 37.06 14.56 37.06"/>
    <polygon class="cls-116" points="14.18 37.06 12.36 17.03 12.73 16.99 14.56 37.06 14.18 37.06"/>
    <polygon class="cls-58" points="13.8 37.06 11.98 17.06 12.36 17.03 14.18 37.06 13.8 37.06"/>
    <polygon class="cls-53" points="13.42 37.06 11.61 17.09 11.98 17.06 13.8 37.06 13.42 37.06"/>
    <polygon class="cls-77" points="13.05 37.06 11.23 17.13 11.61 17.09 13.42 37.06 13.05 37.06"/>
    <polygon class="cls-70" points="12.67 37.06 10.86 17.16 11.23 17.13 13.05 37.06 12.67 37.06"/>
    <polygon class="cls-50" points="12.29 37.06 10.48 17.2 10.86 17.16 12.67 37.06 12.29 37.06"/>
    <polygon class="cls-57" points="11.91 37.06 10.11 17.23 10.48 17.2 12.29 37.06 11.91 37.06"/>
    <polygon class="cls-7" points="11.53 37.06 9.73 17.27 10.11 17.23 11.91 37.06 11.53 37.06"/>
    <polygon class="cls-104" points="11.16 37.06 9.36 17.3 9.73 17.27 11.53 37.06 11.16 37.06"/>
    <polygon class="cls-61" points="10.78 37.06 9.35 21.37 9.35 17.3 9.36 17.3 11.16 37.06 10.78 37.06"/>
    <polygon class="cls-25" points="10.4 37.06 9.35 25.52 9.35 21.37 10.78 37.06 10.4 37.06"/>
    <polygon class="cls-96" points="10.02 37.06 9.35 29.68 9.35 25.52 10.4 37.06 10.02 37.06"/>
    <polygon class="cls-96" points="9.35 29.68 10.02 37.06 9.35 37.06 9.35 29.68"/>
  </g>
</svg>